<?xml version="1.0"?>
<svg xmlns:rdf="http://www.w3.org/1999/02/22-rdf-syntax-ns#" xmlns="http://www.w3.org/2000/svg" xmlns:cc="http://creativecommons.org/ns#" xmlns:dc="http://purl.org/dc/elements/1.1/" xmlns:svg="http://www.w3.org/2000/svg" id="svg2" viewBox="0 0 48 48" version="1.1">
  <g id="layer1" transform="translate(0 -1004.4)">
    <g id="g2840" transform="matrix(1.1609 0 0 1.1609 5.1427 -172.99)" stroke="#fff" stroke-linecap="square" stroke-miterlimit="0" stroke-width=".53812" fill="#f60">
      <rect id="rect2830" rx="2.9839" height="9.4619" width="7.0869" y="1030.1" x="28.769"/>
      <rect id="rect2832" rx="2.9839" height="9.4619" width="7.0869" y="1030.1" x="-3.2309"/>
    </g>
    <path id="path2826" d="m38.214 22.821c0 8.7774-7.1155 15.893-15.893 15.893-8.7774 0-15.893-7.1155-15.893-15.893 0-8.7774 7.1155-15.893 15.893-15.893 8.7774 0 15.893 7.1155 15.893 15.893z" transform="matrix(1.1506 0 0 1.1506 -1.6037 1002.1)" stroke="#fff" stroke-linecap="square" stroke-miterlimit="0" stroke-width=".5" fill="#c8beb7"/>
    <path id="path2828" d="m38.214 22.821c0 8.7774-7.1155 15.893-15.893 15.893-8.7774 0-15.893-7.1155-15.893-15.893 0-8.7774 7.1155-15.893 15.893-15.893 8.7774 0 15.893 7.1155 15.893 15.893z" transform="matrix(1.0068 0 0 1.0068 1.6067 1005.4)" stroke="#fff" stroke-linecap="square" stroke-miterlimit="0" stroke-width=".5" fill="#6c5353"/>
    <path id="path2858" d="m20.375 26.812c0 3.2102-0.50368 5.8125-1.125 5.8125s-1.125-2.6023-1.125-5.8125 0.50368-5.8125 1.125-5.8125 1.125 2.6023 1.125 5.8125z" transform="matrix(.54672 .31425 -.68502 1.1918 34.881 985.38)" stroke="#fff" stroke-linecap="square" stroke-miterlimit="0" stroke-width=".5" fill="#fff"/>
    <path id="path2848" d="m19.375 33.062c0 1.3462-1.1193 2.4375-2.5 2.4375s-2.5-1.0913-2.5-2.4375 1.1193-2.4375 2.5-2.4375 2.5 1.0913 2.5 2.4375z" transform="matrix(1.0065 .57851 -.57851 1.0065 26.222 985.32)" stroke="#fff" stroke-linecap="square" stroke-miterlimit="0" stroke-width=".5" fill="#d40000"/>
    <g id="g2874" transform="matrix(1.1609 0 0 1.1609 5.1427 -175.57)" stroke="#fff" stroke-linecap="square" stroke-miterlimit="0" stroke-width=".5" fill="#c8b7b7">
      <path id="path2870" transform="matrix(1.268 0 0 1.0375 -4.372 1003.5)" d="m16.875 20.812c0 0.3797-0.25184 0.6875-0.5625 0.6875s-0.5625-0.3078-0.5625-0.6875 0.25184-0.6875 0.5625-0.6875 0.5625 0.3078 0.5625 0.6875z"/>
      <path id="path2872" transform="matrix(1.268 0 0 1.0375 -4.372 1027.4)" d="m16.875 20.812c0 0.3797-0.25184 0.6875-0.5625 0.6875s-0.5625-0.3078-0.5625-0.6875 0.25184-0.6875 0.5625-0.6875 0.5625 0.3078 0.5625 0.6875z"/>
    </g>
    <g id="g2878" transform="matrix(-.0043248 1.1609 -1.1609 -.0043248 1228 1013.9)" stroke="#fff" stroke-linecap="square" stroke-miterlimit="0" stroke-width=".5" fill="#c8b7b7">
      <path id="path2880" transform="matrix(1.268 0 0 1.0375 -4.372 1003.5)" d="m16.875 20.812c0 0.3797-0.25184 0.6875-0.5625 0.6875s-0.5625-0.3078-0.5625-0.6875 0.25184-0.6875 0.5625-0.6875 0.5625 0.3078 0.5625 0.6875z"/>
      <path id="path2882" transform="matrix(1.268 0 0 1.0375 -4.372 1027.4)" d="m16.875 20.812c0 0.3797-0.25184 0.6875-0.5625 0.6875s-0.5625-0.3078-0.5625-0.6875 0.25184-0.6875 0.5625-0.6875 0.5625 0.3078 0.5625 0.6875z"/>
    </g>
    <rect id="rect2890" rx="1.3931" height="5.6435" width="3.5913" stroke="#fff" stroke-linecap="square" stroke-miterlimit="0" y="1033.4" x="16.327" stroke-width=".34826" fill="#fff"/>
    <rect id="rect2892" rx="1.3931" height="5.6435" width="3.5913" stroke="#fff" stroke-linecap="square" stroke-miterlimit="0" y="1033.4" x="20.372" stroke-width=".34826" fill="#fff"/>
    <rect id="rect2894" rx="1.3931" height="5.6435" width="3.5913" stroke="#fff" stroke-linecap="square" stroke-miterlimit="0" y="1033.4" x="24.417" stroke-width=".34826" fill="#fff"/>
    <rect id="rect2896" rx="1.3931" height="5.6435" width="3.5913" stroke="#fff" stroke-linecap="square" stroke-miterlimit="0" y="1033.4" x="28.462" stroke-width=".34826" fill="#fff"/>
    <g id="text3670">
      <path id="path2839" d="m18.531 1037.7c-0.000001 0.062-0.02167 0.1145-0.06501 0.1579-0.04025 0.04-0.09132 0.06-0.15324 0.06-0.05882 0-0.1099-0.02-0.15324-0.06-0.04334-0.043-0.06501-0.096-0.06501-0.1579v-2.2707c-0.04024 0.046-0.09287 0.07-0.15788 0.07-0.02477 0-0.04953 0-0.0743-0.01-0.02167-0.01-0.04179-0.017-0.06037-0.033-0.03096-0.022-0.05417-0.046-0.06965-0.074-0.01238-0.031-0.01857-0.065-0.01857-0.1022 0-0.049 0.01393-0.093 0.04179-0.13l0.37613-0.5061c0.01857-0.031 0.04334-0.054 0.0743-0.07 0.03405-0.019 0.06965-0.028 0.1068-0.028 0.06191 0 0.11299 0.022 0.15324 0.065 0.04334 0.04 0.06501 0.09 0.06501 0.1486v2.9394"/>
    </g>
    <g id="text3674">
      <path id="path2842" d="m22.913 1037.4c0.06191 0 0.11454 0.022 0.15788 0.065s0.06501 0.096 0.06501 0.1578c-0.000002 0.059-0.02167 0.1099-0.06501 0.1533-0.04334 0.043-0.09597 0.065-0.15788 0.065h-1.2166c-0.08668 0-0.16098-0.014-0.22289-0.042s-0.11299-0.063-0.15324-0.1068c-0.04024-0.046-0.0712-0.097-0.09287-0.1532-0.01858-0.059-0.02786-0.1161-0.02786-0.1719 0-0.062 0.0093-0.1222 0.02786-0.181 0.02167-0.062 0.05108-0.1146 0.08823-0.1579 0.04334-0.059 0.10835-0.1285 0.19503-0.209 0.08668-0.081 0.1811-0.1672 0.28326-0.26 0.10216-0.096 0.20586-0.1951 0.31112-0.2972 0.10835-0.1022 0.20586-0.1997 0.29254-0.2926 0.08977-0.096 0.16097-0.1841 0.2136-0.2646 0.05572-0.084 0.08358-0.1533 0.08358-0.209-0.000002-0.09-0.01393-0.1703-0.04179-0.2415-0.02477-0.074-0.06037-0.1362-0.1068-0.1857-0.04644-0.053-0.10216-0.093-0.16717-0.1207-0.06191-0.028-0.13002-0.042-0.20432-0.042-0.16098 0-0.28326 0.036-0.36684 0.098s-0.1455 0.1501-0.18574 0.2647c-0.01548 0.046-0.04334 0.084-0.08358 0.1114-0.04024 0.025-0.08204 0.037-0.12538 0.037-0.06501 0-0.11764-0.022-0.15788-0.065-0.03715-0.047-0.05572-0.098-0.05572-0.1533 0-0.022 0.0031-0.045 0.0093-0.07 0.03715-0.1084 0.08823-0.2028 0.15324-0.2833 0.06501-0.084 0.13776-0.1517 0.21825-0.2043 0.08358-0.056 0.1749-0.097 0.27397-0.1254 0.09906-0.028 0.20122-0.042 0.30647-0.042 0.13311 0 0.25849 0.025 0.37613 0.074 0.11763 0.046 0.21979 0.1146 0.30647 0.2043 0.08977 0.09 0.16097 0.1982 0.2136 0.3251 0.05262 0.1238 0.07894 0.2631 0.07894 0.4179-0.000002 0.096-0.02941 0.1981-0.08823 0.3065-0.05573 0.1052-0.12847 0.2136-0.21825 0.325-0.08978 0.1084-0.19039 0.2183-0.30183 0.3297-0.11145 0.1084-0.22289 0.2136-0.33433 0.3158-0.10835 0.099-0.21206 0.195-0.31112 0.2879-0.09597 0.09-0.17336 0.1702-0.23218 0.2414-0.01238 0.019-0.01857 0.036-0.01857 0.051-0.000001 0.031 0.02167 0.046 0.06501 0.046h1.2166"/>
    </g>
    <g id="text3678">
      <path id="path2845" d="m25.711 1035.3c-0.01548 0.046-0.04179 0.084-0.07894 0.1114-0.03715 0.025-0.08049 0.037-0.13002 0.037-0.02477 0-0.04798 0-0.06965-0.01-0.04334-0.019-0.07894-0.045-0.1068-0.079-0.02786-0.037-0.04179-0.079-0.04179-0.1253 0-0.012 0.0015-0.025 0.0046-0.037s0.0062-0.025 0.0093-0.037c0.02167-0.062 0.04334-0.1146 0.06501-0.1579 0.02476-0.046 0.05572-0.094 0.09287-0.144 0.09287-0.1145 0.20431-0.2012 0.33433-0.26 0.13002-0.062 0.27087-0.093 0.42256-0.093 0.12383 0 0.24301 0.022 0.35755 0.065 0.11763 0.04 0.22134 0.099 0.31112 0.1765 0.08977 0.077 0.16097 0.1718 0.2136 0.2833 0.05572 0.1083 0.08358 0.229 0.08358 0.3621-0.000002 0.1301-0.03096 0.257-0.09287 0.3808-0.06191 0.1207-0.14086 0.2198-0.23682 0.2972 0.11144 0.09 0.19503 0.2028 0.25075 0.339 0.05882 0.1362 0.08822 0.2863 0.08823 0.4504-0.000002 0.1393-0.02167 0.2724-0.06501 0.3993-0.04334 0.1239-0.1068 0.2322-0.19038 0.3251-0.08358 0.09-0.18574 0.1625-0.30647 0.2182-0.12073 0.053-0.25694 0.079-0.40863 0.079-0.13931 0-0.26932-0.025-0.39006-0.074-0.11764-0.05-0.21979-0.1177-0.30647-0.2043-0.08668-0.09-0.15633-0.1951-0.20896-0.3158-0.04953-0.1207-0.0743-0.2523-0.0743-0.3947v-0.014c0-0.062 0.02167-0.113 0.06501-0.1533 0.04334-0.043 0.09442-0.065 0.15324-0.065 0.06501 0 0.11764 0.022 0.15788 0.065 0.04334 0.04 0.06501 0.091 0.06501 0.1533 0 0.084 0.01238 0.161 0.03715 0.2322 0.02786 0.068 0.06501 0.1269 0.11144 0.1764 0.04643 0.05 0.10216 0.088 0.16717 0.1161 0.06501 0.025 0.13776 0.037 0.21825 0.037 0.08668 0 0.16407-0.014 0.23218-0.042 0.0681-0.031 0.12383-0.071 0.16717-0.1207 0.04643-0.053 0.08049-0.1145 0.10216-0.1857 0.02476-0.071 0.03715-0.1486 0.03715-0.2322-0.000001-0.084-0.01393-0.161-0.04179-0.2322-0.02477-0.071-0.06037-0.1315-0.1068-0.1811-0.04334-0.053-0.09752-0.093-0.16252-0.1207-0.06501-0.028-0.13466-0.042-0.20896-0.042h-0.01857c-0.06501 0-0.11764-0.026-0.15788-0.07-0.04025-0.043-0.06037-0.094-0.06037-0.1533-0.000001-0.062 0.02012-0.113 0.06037-0.1532 0.04334-0.043 0.09596-0.065 0.15788-0.065 0.06501 0 0.13002-0.01 0.19503-0.028 0.06501-0.019 0.12073-0.046 0.16717-0.084 0.04953-0.04 0.08977-0.087 0.12073-0.1393 0.03095-0.056 0.04643-0.1192 0.04643-0.1904-0.000001-0.074-0.01548-0.1393-0.04643-0.195-0.03096-0.056-0.0712-0.1022-0.12073-0.1393-0.04953-0.04-0.1068-0.07-0.17181-0.088-0.06191-0.022-0.12538-0.033-0.19038-0.033-0.12073 0-0.22599 0.033-0.31576 0.097-0.08668 0.065-0.14859 0.1501-0.18574 0.2554"/>
    </g>
    <g id="text3682" fill="#a00">
      <path id="path2849" d="m29.51 1035c-0.06191 0-0.11454-0.022-0.15788-0.065s-0.06501-0.096-0.06501-0.1579c0-0.059 0.02167-0.1099 0.06501-0.1532 0.04334-0.043 0.09597-0.065 0.15788-0.065h1.4999c0.05572 0 0.10525 0.019 0.14859 0.056 0.04643 0.034 0.06965 0.079 0.06965 0.1347-0.000002 0.028-0.0046 0.054-0.01393 0.079-0.0062 0.025-0.01238 0.046-0.01857 0.065l-1.4674 2.9115c-0.01857 0.037-0.04643 0.067-0.08358 0.088-0.03715 0.022-0.07584 0.032-0.11609 0.032-0.04024 0-0.0743 0-0.10216-0.014-0.02477-0.012-0.04644-0.026-0.06501-0.042-0.01548-0.019-0.02631-0.039-0.03251-0.06-0.0062-0.022-0.0093-0.043-0.0093-0.065 0-0.031 0.0031-0.053 0.0093-0.065 0-0.01 0.02012-0.05 0.06037-0.13 0.04024-0.081 0.09132-0.1826 0.15324-0.3065 0.06191-0.1269 0.13157-0.2693 0.20896-0.4272 0.08049-0.1578 0.16098-0.3188 0.24146-0.4829 0.08358-0.1672 0.16407-0.3297 0.24146-0.4876 0.07739-0.1578 0.14704-0.2987 0.20896-0.4225 0.06191-0.1239 0.11144-0.2245 0.14859-0.3019 0.04024-0.077 0.06036-0.1176 0.06037-0.1207h-1.1423" fill="#a00"/>
    </g>
  </g>
  <metadata>
    <rdf:RDF>
      <cc:Work>
        <dc:format>image/svg+xml</dc:format>
        <dc:type rdf:resource="http://purl.org/dc/dcmitype/StillImage"/>
        <cc:license rdf:resource="http://creativecommons.org/licenses/publicdomain/"/>
        <dc:publisher>
          <cc:Agent rdf:about="http://openclipart.org/">
            <dc:title>Openclipart</dc:title>
          </cc:Agent>
        </dc:publisher>
        <dc:title>Counter</dc:title>
        <dc:date>2013-04-14T15:19:54</dc:date>
        <dc:description>clip art, clipart, counter, icon </dc:description>
        <dc:source>http://openclipart.org/detail/177071/counter-by-dibargatin-177071</dc:source>
        <dc:creator>
          <cc:Agent>
            <dc:title>dibargatin</dc:title>
          </cc:Agent>
        </dc:creator>
        <dc:subject>
          <rdf:Bag>
            <rdf:li>clip art</rdf:li>
            <rdf:li>clipart</rdf:li>
            <rdf:li>counter</rdf:li>
            <rdf:li>icon</rdf:li>
          </rdf:Bag>
        </dc:subject>
      </cc:Work>
      <cc:License rdf:about="http://creativecommons.org/licenses/publicdomain/">
        <cc:permits rdf:resource="http://creativecommons.org/ns#Reproduction"/>
        <cc:permits rdf:resource="http://creativecommons.org/ns#Distribution"/>
        <cc:permits rdf:resource="http://creativecommons.org/ns#DerivativeWorks"/>
      </cc:License>
    </rdf:RDF>
  </metadata>
</svg>
